<svg xmlns="http://www.w3.org/2000/svg" xmlns:xlink="http://www.w3.org/1999/xlink" zoomAndPan="magnify" preserveAspectRatio="xMidYMid meet" version="1.0" viewBox="103.83 108.64 167.26 154.54"><defs><g/><clipPath id="34b520bc30"><path d="M 103.828125 108.640625 L 271.070312 108.640625 L 271.070312 215 L 103.828125 215 Z M 103.828125 108.640625 " clip-rule="nonzero"/></clipPath></defs><path fill="#ffffff" d="M 142.6875 197.222656 C 131.273438 197.222656 121.714844 188.191406 121.5 176.78125 C 121.277344 165.101562 130.710938 155.535156 142.339844 155.535156 C 142.675781 155.535156 143.105469 155.566406 143.5625 155.601562 L 143.585938 155.601562 C 149.703125 156.0625 155.328125 152.25 157.164062 146.394531 C 160.601562 134.523438 171.636719 126.234375 183.992188 126.234375 C 192.925781 126.234375 201.117188 130.386719 206.46875 137.636719 C 209.496094 141.734375 214.660156 143.65625 219.628906 142.523438 C 221.742188 142.050781 223.820312 141.804688 225.792969 141.804688 C 241.210938 141.804688 253.734375 154.464844 253.496094 169.941406 C 253.265625 185.140625 240.578125 197.21875 225.375 197.21875 L 142.6875 197.21875 Z M 142.6875 197.222656 " fill-opacity="1" fill-rule="nonzero"/><g clip-path="url(#34b520bc30)"><path fill="#ffffff" d="M 225.792969 214.820312 L 142.339844 214.820312 C 121.140625 214.820312 103.898438 197.574219 103.898438 176.378906 C 103.898438 155.476562 120.664062 138.417969 141.457031 137.945312 C 148.125 120.519531 165.113281 108.640625 183.988281 108.640625 C 197.332031 108.640625 210.097656 114.628906 218.71875 124.792969 C 221.101562 124.410156 223.464844 124.214844 225.789062 124.214844 C 250.769531 124.214844 271.089844 144.539062 271.089844 169.523438 C 271.089844 194.496094 250.769531 214.820312 225.792969 214.820312 Z M 142.339844 147.457031 C 126.242188 147.457031 113.175781 160.671875 113.421875 176.824219 C 113.660156 192.691406 126.90625 205.296875 142.78125 205.296875 L 225.335938 205.296875 C 245.035156 205.296875 261.378906 189.566406 261.570312 169.867188 C 261.761719 149.972656 245.636719 133.730469 225.792969 133.730469 C 223.214844 133.730469 220.539062 134.039062 217.839844 134.652344 C 216 135.070312 214.082031 134.355469 212.960938 132.835938 C 206.070312 123.507812 195.511719 118.15625 183.992188 118.15625 C 168.066406 118.15625 153.847656 128.84375 149.414062 144.144531 C 148.789062 146.300781 146.742188 147.722656 144.503906 147.566406 C 143.582031 147.507812 142.96875 147.457031 142.339844 147.457031 Z M 142.339844 147.457031 " fill-opacity="1" fill-rule="nonzero"/></g><g fill="#ffffff" fill-opacity="1"><g transform="translate(124.49698, 246.759783)"><g><path d="M 7.984375 0.359375 C 6.710938 0.359375 5.503906 0.21875 4.359375 -0.0625 C 3.222656 -0.351562 2.1875 -0.757812 1.25 -1.28125 L 1.25 -4.984375 C 2.289062 -4.296875 3.363281 -3.800781 4.46875 -3.5 C 5.582031 -3.207031 6.660156 -3.0625 7.703125 -3.0625 C 8.753906 -3.0625 9.578125 -3.191406 10.171875 -3.453125 C 10.773438 -3.710938 11.078125 -4.164062 11.078125 -4.8125 C 11.078125 -5.289062 10.898438 -5.695312 10.546875 -6.03125 C 10.191406 -6.363281 9.710938 -6.644531 9.109375 -6.875 C 8.515625 -7.113281 7.863281 -7.347656 7.15625 -7.578125 C 6.457031 -7.816406 5.753906 -8.082031 5.046875 -8.375 C 4.347656 -8.664062 3.695312 -9.023438 3.09375 -9.453125 C 2.5 -9.890625 2.023438 -10.425781 1.671875 -11.0625 C 1.316406 -11.695312 1.140625 -12.472656 1.140625 -13.390625 C 1.140625 -14.566406 1.441406 -15.535156 2.046875 -16.296875 C 2.660156 -17.066406 3.472656 -17.632812 4.484375 -18 C 5.492188 -18.375 6.597656 -18.5625 7.796875 -18.5625 C 8.867188 -18.5625 9.929688 -18.441406 10.984375 -18.203125 C 12.035156 -17.960938 12.941406 -17.613281 13.703125 -17.15625 L 13.703125 -13.5 C 12.941406 -14.050781 12.070312 -14.460938 11.09375 -14.734375 C 10.125 -15.015625 9.128906 -15.144531 8.109375 -15.125 C 6.128906 -15.113281 5.140625 -14.550781 5.140625 -13.4375 C 5.140625 -12.988281 5.316406 -12.613281 5.671875 -12.3125 C 6.035156 -12.007812 6.515625 -11.742188 7.109375 -11.515625 C 7.710938 -11.296875 8.363281 -11.066406 9.0625 -10.828125 C 9.757812 -10.597656 10.457031 -10.332031 11.15625 -10.03125 C 11.863281 -9.738281 12.515625 -9.375 13.109375 -8.9375 C 13.710938 -8.507812 14.191406 -7.972656 14.546875 -7.328125 C 14.898438 -6.691406 15.078125 -5.910156 15.078125 -4.984375 C 15.078125 -3.617188 14.75 -2.550781 14.09375 -1.78125 C 13.445312 -1.007812 12.585938 -0.457031 11.515625 -0.125 C 10.441406 0.195312 9.265625 0.359375 7.984375 0.359375 Z M 7.984375 0.359375 "/></g></g></g><g fill="#ffffff" fill-opacity="1"><g transform="translate(139.80624, 246.759783)"><g><path d="M 5.046875 0.359375 C 4.285156 0.359375 3.566406 0.210938 2.890625 -0.078125 C 2.222656 -0.367188 1.691406 -0.800781 1.296875 -1.375 C 0.898438 -1.945312 0.703125 -2.640625 0.703125 -3.453125 C 0.703125 -4.253906 0.863281 -4.914062 1.1875 -5.4375 C 1.519531 -5.96875 1.953125 -6.394531 2.484375 -6.71875 C 3.023438 -7.039062 3.617188 -7.269531 4.265625 -7.40625 C 4.921875 -7.550781 5.5625 -7.625 6.1875 -7.625 C 6.6875 -7.625 7.191406 -7.59375 7.703125 -7.53125 C 8.210938 -7.46875 8.695312 -7.382812 9.15625 -7.28125 L 9.15625 -7.71875 C 9.15625 -8.320312 8.90625 -8.820312 8.40625 -9.21875 C 7.914062 -9.625 7.1875 -9.828125 6.21875 -9.828125 C 5.34375 -9.828125 4.53125 -9.726562 3.78125 -9.53125 C 3.039062 -9.332031 2.378906 -9.109375 1.796875 -8.859375 L 1.796875 -12.015625 C 2.296875 -12.179688 2.984375 -12.359375 3.859375 -12.546875 C 4.734375 -12.742188 5.648438 -12.84375 6.609375 -12.84375 C 7.867188 -12.84375 8.957031 -12.65625 9.875 -12.28125 C 10.800781 -11.90625 11.515625 -11.304688 12.015625 -10.484375 C 12.515625 -9.660156 12.765625 -8.566406 12.765625 -7.203125 L 12.765625 -3.21875 C 12.765625 -2.894531 12.851562 -2.675781 13.03125 -2.5625 C 13.21875 -2.445312 13.425781 -2.390625 13.65625 -2.390625 C 13.757812 -2.390625 13.863281 -2.398438 13.96875 -2.421875 C 14.082031 -2.453125 14.191406 -2.476562 14.296875 -2.5 L 14.296875 -0.125 C 14.023438 -0.0195312 13.710938 0.0625 13.359375 0.125 C 13.015625 0.195312 12.660156 0.234375 12.296875 0.234375 C 11.703125 0.234375 11.171875 0.125 10.703125 -0.09375 C 10.242188 -0.320312 9.882812 -0.664062 9.625 -1.125 L 9.5625 -1.203125 C 8.976562 -0.710938 8.3125 -0.328125 7.5625 -0.046875 C 6.820312 0.222656 5.984375 0.359375 5.046875 0.359375 Z M 6.34375 -2.203125 C 6.84375 -2.203125 7.332031 -2.289062 7.8125 -2.46875 C 8.289062 -2.644531 8.738281 -2.914062 9.15625 -3.28125 L 9.15625 -5.171875 C 8.875 -5.242188 8.535156 -5.304688 8.140625 -5.359375 C 7.753906 -5.410156 7.378906 -5.4375 7.015625 -5.4375 C 6.378906 -5.4375 5.785156 -5.3125 5.234375 -5.0625 C 4.691406 -4.820312 4.421875 -4.382812 4.421875 -3.75 C 4.421875 -3.28125 4.601562 -2.90625 4.96875 -2.625 C 5.34375 -2.34375 5.800781 -2.203125 6.34375 -2.203125 Z M 6.34375 -2.203125 "/></g></g></g><g fill="#ffffff" fill-opacity="1"><g transform="translate(153.815885, 246.759783)"><g><path d="M 6.96875 0.359375 C 6.164062 0.359375 5.421875 0.226562 4.734375 -0.03125 C 4.054688 -0.300781 3.507812 -0.75 3.09375 -1.375 C 2.675781 -2 2.46875 -2.820312 2.46875 -3.84375 L 2.46875 -9.4375 L 0.359375 -9.4375 L 0.359375 -12.484375 L 2.46875 -12.484375 L 2.46875 -16.125 L 6.078125 -16.984375 L 6.078125 -12.484375 L 10.015625 -12.484375 L 10.015625 -9.4375 L 6.078125 -9.4375 L 6.078125 -4.546875 C 6.078125 -3.910156 6.238281 -3.441406 6.5625 -3.140625 C 6.882812 -2.847656 7.382812 -2.703125 8.0625 -2.703125 C 8.84375 -2.703125 9.597656 -2.832031 10.328125 -3.09375 L 10.328125 -0.1875 C 9.835938 -0.0078125 9.3125 0.125 8.75 0.21875 C 8.1875 0.3125 7.59375 0.359375 6.96875 0.359375 Z M 6.96875 0.359375 "/></g></g></g><g fill="#ffffff" fill-opacity="1"><g transform="translate(164.160631, 246.759783)"><g><path d="M 0.8125 0 L 0.8125 -2.34375 L 6.65625 -9.46875 L 1.171875 -9.46875 L 1.171875 -12.484375 L 11.34375 -12.484375 L 11.34375 -10.140625 L 5.484375 -3.015625 L 11.71875 -3.015625 L 11.71875 0 Z M 0.8125 0 "/></g></g></g><g fill="#ffffff" fill-opacity="1"><g transform="translate(176.168876, 246.759783)"><g><path d="M 0.8125 0 L 0.8125 -2.34375 L 6.65625 -9.46875 L 1.171875 -9.46875 L 1.171875 -12.484375 L 11.34375 -12.484375 L 11.34375 -10.140625 L 5.484375 -3.015625 L 11.71875 -3.015625 L 11.71875 0 Z M 0.8125 0 "/></g></g></g><g fill="#ffffff" fill-opacity="1"><g transform="translate(188.177121, 246.759783)"><g/></g></g><g fill="#ffffff" fill-opacity="1"><g transform="translate(193.427389, 246.759783)"><g><path d="M 1.953125 0 L 1.953125 -18.203125 L 5.84375 -18.203125 L 5.84375 -10.875 L 14.015625 -10.875 L 14.015625 -18.203125 L 17.90625 -18.203125 L 17.90625 0 L 14.015625 0 L 14.015625 -7.328125 L 5.84375 -7.328125 L 5.84375 0 Z M 1.953125 0 "/></g></g></g><g fill="#ffffff" fill-opacity="1"><g transform="translate(212.765437, 246.759783)"><g><path d="M 7.71875 0.359375 C 6.519531 0.359375 5.394531 0.113281 4.34375 -0.375 C 3.300781 -0.875 2.453125 -1.613281 1.796875 -2.59375 C 1.148438 -3.570312 0.828125 -4.785156 0.828125 -6.234375 C 0.828125 -7.691406 1.148438 -8.910156 1.796875 -9.890625 C 2.453125 -10.867188 3.300781 -11.601562 4.34375 -12.09375 C 5.394531 -12.59375 6.519531 -12.84375 7.71875 -12.84375 C 8.9375 -12.84375 10.066406 -12.59375 11.109375 -12.09375 C 12.160156 -11.601562 13.003906 -10.867188 13.640625 -9.890625 C 14.285156 -8.910156 14.609375 -7.691406 14.609375 -6.234375 C 14.609375 -4.785156 14.285156 -3.570312 13.640625 -2.59375 C 13.003906 -1.613281 12.160156 -0.875 11.109375 -0.375 C 10.066406 0.113281 8.9375 0.359375 7.71875 0.359375 Z M 7.71875 -2.890625 C 8.757812 -2.890625 9.550781 -3.207031 10.09375 -3.84375 C 10.644531 -4.488281 10.921875 -5.285156 10.921875 -6.234375 C 10.921875 -7.210938 10.644531 -8.015625 10.09375 -8.640625 C 9.550781 -9.273438 8.757812 -9.59375 7.71875 -9.59375 C 6.675781 -9.59375 5.882812 -9.273438 5.34375 -8.640625 C 4.800781 -8.015625 4.53125 -7.210938 4.53125 -6.234375 C 4.53125 -5.285156 4.800781 -4.488281 5.34375 -3.84375 C 5.882812 -3.207031 6.675781 -2.890625 7.71875 -2.890625 Z M 7.71875 -2.890625 "/></g></g></g><g fill="#ffffff" fill-opacity="1"><g transform="translate(227.684812, 246.759783)"><g><path d="M 6.0625 0.359375 C 5.101562 0.359375 4.191406 0.257812 3.328125 0.0625 C 2.472656 -0.132812 1.726562 -0.425781 1.09375 -0.8125 L 1.09375 -3.796875 C 1.769531 -3.359375 2.546875 -3.023438 3.421875 -2.796875 C 4.296875 -2.578125 5.101562 -2.46875 5.84375 -2.46875 C 6.507812 -2.46875 7.039062 -2.535156 7.4375 -2.671875 C 7.832031 -2.816406 8.03125 -3.0625 8.03125 -3.40625 C 8.03125 -3.738281 7.859375 -4.007812 7.515625 -4.21875 C 7.179688 -4.425781 6.742188 -4.601562 6.203125 -4.75 C 5.671875 -4.90625 5.101562 -5.070312 4.5 -5.25 C 3.90625 -5.4375 3.335938 -5.675781 2.796875 -5.96875 C 2.265625 -6.269531 1.828125 -6.660156 1.484375 -7.140625 C 1.148438 -7.628906 0.984375 -8.25 0.984375 -9 C 0.984375 -9.96875 1.234375 -10.726562 1.734375 -11.28125 C 2.242188 -11.832031 2.894531 -12.226562 3.6875 -12.46875 C 4.488281 -12.71875 5.320312 -12.84375 6.1875 -12.84375 C 7.070312 -12.84375 7.898438 -12.742188 8.671875 -12.546875 C 9.441406 -12.347656 10.148438 -12.09375 10.796875 -11.78125 L 10.796875 -8.78125 C 10.253906 -9.144531 9.578125 -9.445312 8.765625 -9.6875 C 7.953125 -9.9375 7.179688 -10.0625 6.453125 -10.0625 C 6.035156 -10.0625 5.640625 -9.992188 5.265625 -9.859375 C 4.890625 -9.734375 4.703125 -9.472656 4.703125 -9.078125 C 4.703125 -8.722656 4.867188 -8.445312 5.203125 -8.25 C 5.546875 -8.050781 5.984375 -7.875 6.515625 -7.71875 C 7.054688 -7.5625 7.625 -7.390625 8.21875 -7.203125 C 8.820312 -7.023438 9.390625 -6.789062 9.921875 -6.5 C 10.453125 -6.21875 10.882812 -5.832031 11.21875 -5.34375 C 11.550781 -4.863281 11.71875 -4.242188 11.71875 -3.484375 C 11.71875 -2.515625 11.453125 -1.75 10.921875 -1.1875 C 10.398438 -0.625 9.707031 -0.226562 8.84375 0 C 7.988281 0.238281 7.0625 0.359375 6.0625 0.359375 Z M 6.0625 0.359375 "/></g></g></g><g fill="#ffffff" fill-opacity="1"><g transform="translate(239.615083, 246.759783)"><g><path d="M 6.96875 0.359375 C 6.164062 0.359375 5.421875 0.226562 4.734375 -0.03125 C 4.054688 -0.300781 3.507812 -0.75 3.09375 -1.375 C 2.675781 -2 2.46875 -2.820312 2.46875 -3.84375 L 2.46875 -9.4375 L 0.359375 -9.4375 L 0.359375 -12.484375 L 2.46875 -12.484375 L 2.46875 -16.125 L 6.078125 -16.984375 L 6.078125 -12.484375 L 10.015625 -12.484375 L 10.015625 -9.4375 L 6.078125 -9.4375 L 6.078125 -4.546875 C 6.078125 -3.910156 6.238281 -3.441406 6.5625 -3.140625 C 6.882812 -2.847656 7.382812 -2.703125 8.0625 -2.703125 C 8.84375 -2.703125 9.597656 -2.832031 10.328125 -3.09375 L 10.328125 -0.1875 C 9.835938 -0.0078125 9.3125 0.125 8.75 0.21875 C 8.1875 0.3125 7.59375 0.359375 6.96875 0.359375 Z M 6.96875 0.359375 "/></g></g></g><g fill="#ffffff" fill-opacity="1"><g transform="translate(117.593646, 263.059759)"><g><path d="M 2.765625 0.125 C 2.328125 0.125 1.910156 0.078125 1.515625 -0.015625 C 1.117188 -0.117188 0.757812 -0.257812 0.4375 -0.4375 L 0.4375 -1.734375 C 0.789062 -1.492188 1.160156 -1.320312 1.546875 -1.21875 C 1.929688 -1.113281 2.300781 -1.0625 2.65625 -1.0625 C 3.03125 -1.0625 3.316406 -1.101562 3.515625 -1.1875 C 3.722656 -1.28125 3.828125 -1.441406 3.828125 -1.671875 C 3.828125 -1.835938 3.765625 -1.976562 3.640625 -2.09375 C 3.523438 -2.207031 3.363281 -2.300781 3.15625 -2.375 C 2.945312 -2.457031 2.71875 -2.539062 2.46875 -2.625 C 2.226562 -2.707031 1.988281 -2.796875 1.75 -2.890625 C 1.507812 -2.992188 1.285156 -3.117188 1.078125 -3.265625 C 0.867188 -3.421875 0.703125 -3.609375 0.578125 -3.828125 C 0.453125 -4.046875 0.390625 -4.316406 0.390625 -4.640625 C 0.390625 -5.046875 0.492188 -5.378906 0.703125 -5.640625 C 0.921875 -5.898438 1.203125 -6.09375 1.546875 -6.21875 C 1.898438 -6.351562 2.285156 -6.421875 2.703125 -6.421875 C 3.078125 -6.421875 3.441406 -6.378906 3.796875 -6.296875 C 4.160156 -6.210938 4.476562 -6.09375 4.75 -5.9375 L 4.75 -4.671875 C 4.476562 -4.859375 4.175781 -5 3.84375 -5.09375 C 3.507812 -5.195312 3.164062 -5.242188 2.8125 -5.234375 C 2.125 -5.234375 1.78125 -5.039062 1.78125 -4.65625 C 1.78125 -4.5 1.84375 -4.367188 1.96875 -4.265625 C 2.09375 -4.160156 2.253906 -4.066406 2.453125 -3.984375 C 2.660156 -3.910156 2.882812 -3.832031 3.125 -3.75 C 3.375 -3.664062 3.617188 -3.570312 3.859375 -3.46875 C 4.109375 -3.375 4.332031 -3.25 4.53125 -3.09375 C 4.738281 -2.945312 4.90625 -2.757812 5.03125 -2.53125 C 5.15625 -2.3125 5.21875 -2.046875 5.21875 -1.734375 C 5.21875 -1.253906 5.101562 -0.878906 4.875 -0.609375 C 4.65625 -0.347656 4.359375 -0.160156 3.984375 -0.046875 C 3.609375 0.0664062 3.203125 0.125 2.765625 0.125 Z M 2.765625 0.125 "/></g></g></g><g fill="#ffffff" fill-opacity="1"><g transform="translate(124.154679, 263.059759)"><g><path d="M 3.671875 0.125 C 3.109375 0.125 2.617188 0.0351562 2.203125 -0.140625 C 1.785156 -0.316406 1.4375 -0.554688 1.15625 -0.859375 C 0.875 -1.171875 0.664062 -1.523438 0.53125 -1.921875 C 0.394531 -2.316406 0.328125 -2.726562 0.328125 -3.15625 C 0.328125 -3.570312 0.394531 -3.976562 0.53125 -4.375 C 0.664062 -4.769531 0.875 -5.117188 1.15625 -5.421875 C 1.4375 -5.734375 1.785156 -5.976562 2.203125 -6.15625 C 2.617188 -6.332031 3.109375 -6.421875 3.671875 -6.421875 C 4.234375 -6.421875 4.722656 -6.332031 5.140625 -6.15625 C 5.554688 -5.976562 5.90625 -5.734375 6.1875 -5.421875 C 6.46875 -5.117188 6.675781 -4.769531 6.8125 -4.375 C 6.945312 -3.976562 7.015625 -3.570312 7.015625 -3.15625 C 7.015625 -2.726562 6.945312 -2.316406 6.8125 -1.921875 C 6.675781 -1.523438 6.46875 -1.171875 6.1875 -0.859375 C 5.90625 -0.554688 5.554688 -0.316406 5.140625 -0.140625 C 4.722656 0.0351562 4.234375 0.125 3.671875 0.125 Z M 3.671875 -1.125 C 4.097656 -1.125 4.457031 -1.210938 4.75 -1.390625 C 5.039062 -1.578125 5.257812 -1.820312 5.40625 -2.125 C 5.5625 -2.4375 5.640625 -2.78125 5.640625 -3.15625 C 5.640625 -3.519531 5.5625 -3.851562 5.40625 -4.15625 C 5.257812 -4.46875 5.039062 -4.710938 4.75 -4.890625 C 4.457031 -5.078125 4.097656 -5.171875 3.671875 -5.171875 C 3.242188 -5.171875 2.882812 -5.078125 2.59375 -4.890625 C 2.300781 -4.710938 2.078125 -4.46875 1.921875 -4.15625 C 1.773438 -3.851562 1.703125 -3.519531 1.703125 -3.15625 C 1.703125 -2.78125 1.773438 -2.4375 1.921875 -2.125 C 2.078125 -1.820312 2.300781 -1.578125 2.59375 -1.390625 C 2.882812 -1.210938 3.242188 -1.125 3.671875 -1.125 Z M 3.671875 -1.125 "/></g></g></g><g fill="#ffffff" fill-opacity="1"><g transform="translate(132.569736, 263.059759)"><g><path d="M 0.671875 0 L 0.671875 -6.296875 L 2.03125 -6.296875 L 2.03125 -1.21875 L 5.125 -1.21875 L 5.125 0 Z M 0.671875 0 "/></g></g></g><g fill="#ffffff" fill-opacity="1"><g transform="translate(138.887776, 263.059759)"><g><path d="M 3.375 0.125 C 3.03125 0.125 2.691406 0.0820312 2.359375 0 C 2.023438 -0.09375 1.726562 -0.234375 1.46875 -0.421875 C 1.207031 -0.617188 1 -0.875 0.84375 -1.1875 C 0.6875 -1.507812 0.609375 -1.898438 0.609375 -2.359375 L 0.609375 -6.296875 L 1.96875 -6.296875 L 1.96875 -2.4375 C 1.96875 -1.945312 2.097656 -1.597656 2.359375 -1.390625 C 2.617188 -1.191406 2.957031 -1.09375 3.375 -1.09375 C 3.789062 -1.09375 4.128906 -1.191406 4.390625 -1.390625 C 4.648438 -1.597656 4.78125 -1.945312 4.78125 -2.4375 L 4.78125 -6.296875 L 6.140625 -6.296875 L 6.140625 -2.359375 C 6.140625 -1.898438 6.0625 -1.507812 5.90625 -1.1875 C 5.75 -0.875 5.539062 -0.617188 5.28125 -0.421875 C 5.019531 -0.234375 4.722656 -0.09375 4.390625 0 C 4.054688 0.0820312 3.71875 0.125 3.375 0.125 Z M 3.375 0.125 "/></g></g></g><g fill="#ffffff" fill-opacity="1"><g transform="translate(146.717822, 263.059759)"><g><path d="M 2.765625 0.125 C 2.328125 0.125 1.910156 0.078125 1.515625 -0.015625 C 1.117188 -0.117188 0.757812 -0.257812 0.4375 -0.4375 L 0.4375 -1.734375 C 0.789062 -1.492188 1.160156 -1.320312 1.546875 -1.21875 C 1.929688 -1.113281 2.300781 -1.0625 2.65625 -1.0625 C 3.03125 -1.0625 3.316406 -1.101562 3.515625 -1.1875 C 3.722656 -1.28125 3.828125 -1.441406 3.828125 -1.671875 C 3.828125 -1.835938 3.765625 -1.976562 3.640625 -2.09375 C 3.523438 -2.207031 3.363281 -2.300781 3.15625 -2.375 C 2.945312 -2.457031 2.71875 -2.539062 2.46875 -2.625 C 2.226562 -2.707031 1.988281 -2.796875 1.75 -2.890625 C 1.507812 -2.992188 1.285156 -3.117188 1.078125 -3.265625 C 0.867188 -3.421875 0.703125 -3.609375 0.578125 -3.828125 C 0.453125 -4.046875 0.390625 -4.316406 0.390625 -4.640625 C 0.390625 -5.046875 0.492188 -5.378906 0.703125 -5.640625 C 0.921875 -5.898438 1.203125 -6.09375 1.546875 -6.21875 C 1.898438 -6.351562 2.285156 -6.421875 2.703125 -6.421875 C 3.078125 -6.421875 3.441406 -6.378906 3.796875 -6.296875 C 4.160156 -6.210938 4.476562 -6.09375 4.75 -5.9375 L 4.75 -4.671875 C 4.476562 -4.859375 4.175781 -5 3.84375 -5.09375 C 3.507812 -5.195312 3.164062 -5.242188 2.8125 -5.234375 C 2.125 -5.234375 1.78125 -5.039062 1.78125 -4.65625 C 1.78125 -4.5 1.84375 -4.367188 1.96875 -4.265625 C 2.09375 -4.160156 2.253906 -4.066406 2.453125 -3.984375 C 2.660156 -3.910156 2.882812 -3.832031 3.125 -3.75 C 3.375 -3.664062 3.617188 -3.570312 3.859375 -3.46875 C 4.109375 -3.375 4.332031 -3.25 4.53125 -3.09375 C 4.738281 -2.945312 4.90625 -2.757812 5.03125 -2.53125 C 5.15625 -2.3125 5.21875 -2.046875 5.21875 -1.734375 C 5.21875 -1.253906 5.101562 -0.878906 4.875 -0.609375 C 4.65625 -0.347656 4.359375 -0.160156 3.984375 -0.046875 C 3.609375 0.0664062 3.203125 0.125 2.765625 0.125 Z M 2.765625 0.125 "/></g></g></g><g fill="#ffffff" fill-opacity="1"><g transform="translate(153.278857, 263.059759)"><g><path d="M 0.671875 0 L 0.671875 -6.296875 L 2.03125 -6.296875 L 2.03125 0 Z M 0.671875 0 "/></g></g></g><g fill="#ffffff" fill-opacity="1"><g transform="translate(157.058872, 263.059759)"><g/></g></g><g fill="#ffffff" fill-opacity="1"><g transform="translate(160.136883, 263.059759)"><g><path d="M 0.671875 0 L 0.671875 -6.296875 L 2.03125 -6.296875 L 2.03125 -3.765625 L 4.84375 -3.765625 L 4.84375 -6.296875 L 6.203125 -6.296875 L 6.203125 0 L 4.84375 0 L 4.84375 -2.53125 L 2.03125 -2.53125 L 2.03125 0 Z M 0.671875 0 "/></g></g></g><g fill="#ffffff" fill-opacity="1"><g transform="translate(168.092929, 263.059759)"><g><path d="M 3.671875 0.125 C 3.109375 0.125 2.617188 0.0351562 2.203125 -0.140625 C 1.785156 -0.316406 1.4375 -0.554688 1.15625 -0.859375 C 0.875 -1.171875 0.664062 -1.523438 0.53125 -1.921875 C 0.394531 -2.316406 0.328125 -2.726562 0.328125 -3.15625 C 0.328125 -3.570312 0.394531 -3.976562 0.53125 -4.375 C 0.664062 -4.769531 0.875 -5.117188 1.15625 -5.421875 C 1.4375 -5.734375 1.785156 -5.976562 2.203125 -6.15625 C 2.617188 -6.332031 3.109375 -6.421875 3.671875 -6.421875 C 4.234375 -6.421875 4.722656 -6.332031 5.140625 -6.15625 C 5.554688 -5.976562 5.90625 -5.734375 6.1875 -5.421875 C 6.46875 -5.117188 6.675781 -4.769531 6.8125 -4.375 C 6.945312 -3.976562 7.015625 -3.570312 7.015625 -3.15625 C 7.015625 -2.726562 6.945312 -2.316406 6.8125 -1.921875 C 6.675781 -1.523438 6.46875 -1.171875 6.1875 -0.859375 C 5.90625 -0.554688 5.554688 -0.316406 5.140625 -0.140625 C 4.722656 0.0351562 4.234375 0.125 3.671875 0.125 Z M 3.671875 -1.125 C 4.097656 -1.125 4.457031 -1.210938 4.75 -1.390625 C 5.039062 -1.578125 5.257812 -1.820312 5.40625 -2.125 C 5.5625 -2.4375 5.640625 -2.78125 5.640625 -3.15625 C 5.640625 -3.519531 5.5625 -3.851562 5.40625 -4.15625 C 5.257812 -4.46875 5.039062 -4.710938 4.75 -4.890625 C 4.457031 -5.078125 4.097656 -5.171875 3.671875 -5.171875 C 3.242188 -5.171875 2.882812 -5.078125 2.59375 -4.890625 C 2.300781 -4.710938 2.078125 -4.46875 1.921875 -4.15625 C 1.773438 -3.851562 1.703125 -3.519531 1.703125 -3.15625 C 1.703125 -2.78125 1.773438 -2.4375 1.921875 -2.125 C 2.078125 -1.820312 2.300781 -1.578125 2.59375 -1.390625 C 2.882812 -1.210938 3.242188 -1.125 3.671875 -1.125 Z M 3.671875 -1.125 "/></g></g></g><g fill="#ffffff" fill-opacity="1"><g transform="translate(176.507987, 263.059759)"><g><path d="M 2.765625 0.125 C 2.328125 0.125 1.910156 0.078125 1.515625 -0.015625 C 1.117188 -0.117188 0.757812 -0.257812 0.4375 -0.4375 L 0.4375 -1.734375 C 0.789062 -1.492188 1.160156 -1.320312 1.546875 -1.21875 C 1.929688 -1.113281 2.300781 -1.0625 2.65625 -1.0625 C 3.03125 -1.0625 3.316406 -1.101562 3.515625 -1.1875 C 3.722656 -1.28125 3.828125 -1.441406 3.828125 -1.671875 C 3.828125 -1.835938 3.765625 -1.976562 3.640625 -2.09375 C 3.523438 -2.207031 3.363281 -2.300781 3.15625 -2.375 C 2.945312 -2.457031 2.71875 -2.539062 2.46875 -2.625 C 2.226562 -2.707031 1.988281 -2.796875 1.75 -2.890625 C 1.507812 -2.992188 1.285156 -3.117188 1.078125 -3.265625 C 0.867188 -3.421875 0.703125 -3.609375 0.578125 -3.828125 C 0.453125 -4.046875 0.390625 -4.316406 0.390625 -4.640625 C 0.390625 -5.046875 0.492188 -5.378906 0.703125 -5.640625 C 0.921875 -5.898438 1.203125 -6.09375 1.546875 -6.21875 C 1.898438 -6.351562 2.285156 -6.421875 2.703125 -6.421875 C 3.078125 -6.421875 3.441406 -6.378906 3.796875 -6.296875 C 4.160156 -6.210938 4.476562 -6.09375 4.75 -5.9375 L 4.75 -4.671875 C 4.476562 -4.859375 4.175781 -5 3.84375 -5.09375 C 3.507812 -5.195312 3.164062 -5.242188 2.8125 -5.234375 C 2.125 -5.234375 1.78125 -5.039062 1.78125 -4.65625 C 1.78125 -4.5 1.84375 -4.367188 1.96875 -4.265625 C 2.09375 -4.160156 2.253906 -4.066406 2.453125 -3.984375 C 2.660156 -3.910156 2.882812 -3.832031 3.125 -3.75 C 3.375 -3.664062 3.617188 -3.570312 3.859375 -3.46875 C 4.109375 -3.375 4.332031 -3.25 4.53125 -3.09375 C 4.738281 -2.945312 4.90625 -2.757812 5.03125 -2.53125 C 5.15625 -2.3125 5.21875 -2.046875 5.21875 -1.734375 C 5.21875 -1.253906 5.101562 -0.878906 4.875 -0.609375 C 4.65625 -0.347656 4.359375 -0.160156 3.984375 -0.046875 C 3.609375 0.0664062 3.203125 0.125 2.765625 0.125 Z M 2.765625 0.125 "/></g></g></g><g fill="#ffffff" fill-opacity="1"><g transform="translate(183.069022, 263.059759)"><g><path d="M 2.046875 0 L 2.046875 -5.078125 L 0.109375 -5.078125 L 0.109375 -6.296875 L 5.328125 -6.296875 L 5.328125 -5.078125 L 3.40625 -5.078125 L 3.40625 0 Z M 2.046875 0 "/></g></g></g><g fill="#ffffff" fill-opacity="1"><g transform="translate(189.594065, 263.059759)"><g><path d="M 0.671875 0 L 0.671875 -6.296875 L 2.03125 -6.296875 L 2.03125 0 Z M 0.671875 0 "/></g></g></g><g fill="#ffffff" fill-opacity="1"><g transform="translate(193.374082, 263.059759)"><g><path d="M 0.671875 0 L 0.671875 -6.296875 L 1.953125 -6.296875 L 4.875 -2.203125 C 4.863281 -2.328125 4.851562 -2.460938 4.84375 -2.609375 C 4.84375 -2.765625 4.84375 -2.914062 4.84375 -3.0625 L 4.84375 -6.296875 L 6.203125 -6.296875 L 6.203125 0 L 4.921875 0 L 2 -4.109375 C 2.019531 -3.972656 2.03125 -3.828125 2.03125 -3.671875 C 2.03125 -3.523438 2.03125 -3.378906 2.03125 -3.234375 L 2.03125 0 Z M 0.671875 0 "/></g></g></g><g fill="#ffffff" fill-opacity="1"><g transform="translate(201.330129, 263.059759)"><g><path d="M 3.796875 0.125 C 3.347656 0.125 2.914062 0.0625 2.5 -0.0625 C 2.09375 -0.1875 1.722656 -0.378906 1.390625 -0.640625 C 1.066406 -0.910156 0.804688 -1.25 0.609375 -1.65625 C 0.421875 -2.070312 0.328125 -2.570312 0.328125 -3.15625 C 0.328125 -3.71875 0.421875 -4.207031 0.609375 -4.625 C 0.804688 -5.039062 1.066406 -5.378906 1.390625 -5.640625 C 1.722656 -5.910156 2.09375 -6.109375 2.5 -6.234375 C 2.90625 -6.359375 3.328125 -6.421875 3.765625 -6.421875 C 4.441406 -6.421875 5.085938 -6.285156 5.703125 -6.015625 L 5.703125 -4.71875 C 5.460938 -4.882812 5.1875 -5.007812 4.875 -5.09375 C 4.570312 -5.175781 4.257812 -5.21875 3.9375 -5.21875 C 3.570312 -5.21875 3.21875 -5.144531 2.875 -5 C 2.53125 -4.863281 2.25 -4.644531 2.03125 -4.34375 C 1.820312 -4.039062 1.71875 -3.644531 1.71875 -3.15625 C 1.71875 -2.726562 1.785156 -2.378906 1.921875 -2.109375 C 2.054688 -1.835938 2.226562 -1.625 2.4375 -1.46875 C 2.65625 -1.320312 2.890625 -1.21875 3.140625 -1.15625 C 3.390625 -1.09375 3.632812 -1.0625 3.875 -1.0625 C 4.144531 -1.0625 4.367188 -1.097656 4.546875 -1.171875 L 4.546875 -3.421875 L 5.84375 -3.421875 L 5.84375 -0.296875 C 5.53125 -0.160156 5.195312 -0.0546875 4.84375 0.015625 C 4.5 0.0859375 4.148438 0.125 3.796875 0.125 Z M 3.796875 0.125 "/></g></g></g><g fill="#ffffff" fill-opacity="1"><g transform="translate(208.719178, 263.059759)"><g/></g></g><g fill="#ffffff" fill-opacity="1"><g transform="translate(211.797192, 263.059759)"><g><path d="M 2.046875 0 L 2.046875 -5.078125 L 0.109375 -5.078125 L 0.109375 -6.296875 L 5.328125 -6.296875 L 5.328125 -5.078125 L 3.40625 -5.078125 L 3.40625 0 Z M 2.046875 0 "/></g></g></g><g fill="#ffffff" fill-opacity="1"><g transform="translate(218.322235, 263.059759)"><g><path d="M 0.671875 0 L 0.671875 -6.296875 L 5.109375 -6.296875 L 5.109375 -5.109375 L 2.03125 -5.109375 L 2.03125 -3.765625 L 4.84375 -3.765625 L 4.84375 -2.578125 L 2.03125 -2.578125 L 2.03125 -1.1875 L 5.171875 -1.1875 L 5.171875 0 Z M 0.671875 0 "/></g></g></g><g fill="#ffffff" fill-opacity="1"><g transform="translate(224.964271, 263.059759)"><g><path d="M 0.671875 0 L 0.671875 -6.296875 L 3.265625 -6.296875 C 3.566406 -6.296875 3.863281 -6.265625 4.15625 -6.203125 C 4.457031 -6.140625 4.726562 -6.03125 4.96875 -5.875 C 5.21875 -5.71875 5.410156 -5.503906 5.546875 -5.234375 C 5.691406 -4.972656 5.765625 -4.644531 5.765625 -4.25 C 5.765625 -3.882812 5.703125 -3.578125 5.578125 -3.328125 C 5.460938 -3.085938 5.300781 -2.890625 5.09375 -2.734375 C 4.882812 -2.578125 4.65625 -2.457031 4.40625 -2.375 L 6.265625 0 L 4.71875 0 L 3.015625 -2.203125 L 2.03125 -2.203125 L 2.03125 0 Z M 2.03125 -3.328125 L 3.328125 -3.328125 C 3.609375 -3.328125 3.851562 -3.394531 4.0625 -3.53125 C 4.28125 -3.675781 4.390625 -3.90625 4.390625 -4.21875 C 4.390625 -4.539062 4.28125 -4.769531 4.0625 -4.90625 C 3.851562 -5.039062 3.609375 -5.109375 3.328125 -5.109375 L 2.03125 -5.109375 Z M 2.03125 -3.328125 "/></g></g></g><g fill="#ffffff" fill-opacity="1"><g transform="translate(232.389312, 263.059759)"><g><path d="M 0.671875 0 L 0.671875 -6.296875 L 3.421875 -6.296875 C 4.109375 -6.296875 4.644531 -6.164062 5.03125 -5.90625 C 5.414062 -5.644531 5.609375 -5.242188 5.609375 -4.703125 C 5.609375 -4.335938 5.519531 -4.039062 5.34375 -3.8125 C 5.164062 -3.582031 4.9375 -3.421875 4.65625 -3.328125 C 4.863281 -3.265625 5.054688 -3.171875 5.234375 -3.046875 C 5.421875 -2.921875 5.570312 -2.753906 5.6875 -2.546875 C 5.8125 -2.335938 5.875 -2.078125 5.875 -1.765625 C 5.875 -1.398438 5.796875 -1.101562 5.640625 -0.875 C 5.484375 -0.65625 5.28125 -0.476562 5.03125 -0.34375 C 4.78125 -0.21875 4.507812 -0.128906 4.21875 -0.078125 C 3.9375 -0.0234375 3.660156 0 3.390625 0 Z M 2.03125 -3.765625 L 3.375 -3.75 C 3.632812 -3.75 3.84375 -3.804688 4 -3.921875 C 4.164062 -4.046875 4.25 -4.226562 4.25 -4.46875 C 4.25 -4.71875 4.164062 -4.898438 4 -5.015625 C 3.832031 -5.128906 3.597656 -5.1875 3.296875 -5.1875 L 2.03125 -5.1875 Z M 2.03125 -1.109375 L 3.359375 -1.109375 C 3.566406 -1.109375 3.753906 -1.125 3.921875 -1.15625 C 4.097656 -1.195312 4.238281 -1.273438 4.34375 -1.390625 C 4.445312 -1.503906 4.5 -1.675781 4.5 -1.90625 C 4.5 -2.125 4.445312 -2.289062 4.34375 -2.40625 C 4.238281 -2.53125 4.101562 -2.613281 3.9375 -2.65625 C 3.78125 -2.695312 3.613281 -2.71875 3.4375 -2.71875 L 2.03125 -2.71875 Z M 2.03125 -1.109375 "/></g></g></g><g fill="#ffffff" fill-opacity="1"><g transform="translate(239.643355, 263.059759)"><g><path d="M 4.0625 -6.296875 L 6.640625 0 L 5.234375 0 L 4.765625 -1.171875 L 1.890625 -1.171875 L 1.4375 0 L 0.03125 0 L 2.59375 -6.296875 Z M 2.3125 -2.296875 L 4.34375 -2.296875 L 3.46875 -4.546875 C 3.425781 -4.660156 3.378906 -4.816406 3.328125 -5.015625 C 3.304688 -4.898438 3.285156 -4.804688 3.265625 -4.734375 C 3.242188 -4.671875 3.21875 -4.609375 3.1875 -4.546875 Z M 2.3125 -2.296875 "/></g></g></g><g fill="#ffffff" fill-opacity="1"><g transform="translate(247.383406, 263.059759)"><g><path d="M 0.671875 0 L 0.671875 -6.296875 L 2.03125 -6.296875 L 2.03125 0 Z M 0.671875 0 "/></g></g></g><g fill="#ffffff" fill-opacity="1"><g transform="translate(251.163423, 263.059759)"><g><path d="M 0.671875 0 L 0.671875 -6.296875 L 2.03125 -6.296875 L 2.03125 -3.796875 L 2.921875 -3.796875 L 4.640625 -6.296875 L 6.140625 -6.296875 L 3.984375 -3.234375 L 6.265625 0 L 4.75 0 L 2.921875 -2.578125 L 2.03125 -2.578125 L 2.03125 0 Z M 0.671875 0 "/></g></g></g></svg>